<svg width="27" height="30" viewBox="0 0 27 30" fill="none" xmlns="http://www.w3.org/2000/svg">
<path d="M6.95925 7.5H6.75V4.5C6.75 2.01471 9.01655 0 11.8125 0H15.1875C17.9835 0 20.25 2.01471 20.25 4.5V7.5H20.0408C24.191 9.54708 27 13.482 27 18V25.5C27 27.9852 24.7335 30 21.9375 30H5.0625C2.26655 30 0 27.9852 0 25.5V18C0 13.482 2.80898 9.54708 6.95925 7.5ZM10.125 4.5V6.37806C11.2037 6.13125 12.3346 6 13.5 6C14.6654 6 15.7963 6.13125 16.875 6.37806V4.5C16.875 3.67158 16.1195 3 15.1875 3H11.8125C10.8805 3 10.125 3.67158 10.125 4.5ZM10.125 13.5C10.125 14.3284 10.8805 15 11.8125 15H15.1875C16.1195 15 16.875 14.3284 16.875 13.5C16.875 12.6716 16.1195 12 15.1875 12H11.8125C10.8805 12 10.125 12.6716 10.125 13.5ZM8.4375 21C7.50553 21 6.75 21.6716 6.75 22.5C6.75 23.3284 7.50553 24 8.4375 24H18.5625C19.4945 24 20.25 23.3284 20.25 22.5C20.25 21.6716 19.4945 21 18.5625 21H8.4375Z" fill="#282828"/>
</svg>
